<svg xmlns="http://www.w3.org/2000/svg" width="53.213" height="47.522" viewBox="0 0 53.213 47.522">
  <g id="metamask" transform="translate(-0.563 -0.562)">
    <path id="Path_12" data-name="Path 12" d="M60.75,169.888l6.972,1.85v-2.419l.569-.569h3.984v4.838H68.006l-5.265-2.276Z" transform="translate(-44.963 -125.645)" fill="#cdbdb2" fill-rule="evenodd"/>
    <path id="Path_13" data-name="Path 13" d="M0,3.7,6.829,1.85V4.268l.569.569h3.984V0H7.114L1.85,2.276Z" transform="translate(38.552 47.942) rotate(180)" fill="#cdbdb2" fill-rule="evenodd"/>
    <path id="Path_14" data-name="Path 14" d="M88.882,150.337l-.569,4.7.711-.569h7.4l.854.569-.569-4.7-1.138-.712-5.691.142Z" transform="translate(-65.554 -111.358)" fill="#393939" fill-rule="evenodd"/>
    <path id="Path_15" data-name="Path 15" d="M75.375,27l3.415,7.968L80.355,58.16H85.9l1.707-23.192L90.741,27Z" transform="translate(-55.889 -19.75)" fill="#f89c35" fill-rule="evenodd"/>
    <path id="Path_16" data-name="Path 16" d="M4.547,83.581.563,95.106l9.96-.569h6.4v-4.98l-.285-10.244-1.423,1.138Z" transform="translate(0 -58.831)" fill="#f89d35" fill-rule="evenodd"/>
    <path id="Path_17" data-name="Path 17" d="M46.125,101.25l11.667.285-1.28,5.976-5.549-1.423Z" transform="translate(-34.037 -75.219)" fill="#d87c30" fill-rule="evenodd"/>
    <path id="Path_18" data-name="Path 18" d="M46.125,101.813l4.838,4.553v4.553Z" transform="translate(-34.037 -75.64)" fill="#ea8d3a" fill-rule="evenodd"/>
    <path id="Path_19" data-name="Path 19" d="M65.25,120.375l5.691,1.423,1.85,6.118-1.281.711-6.26-3.7Z" transform="translate(-48.325 -89.507)" fill="#f89d35" fill-rule="evenodd"/>
    <path id="Path_20" data-name="Path 20" d="M61.888,138.375,60.75,147.2l7.541-5.264Z" transform="translate(-44.963 -102.954)" fill="#eb8f35" fill-rule="evenodd"/>
    <path id="Path_21" data-name="Path 21" d="M88.048,102.375l.712,12.094-2.134-6.189Z" transform="translate(-64.293 -76.06)" fill="#ea8e3a" fill-rule="evenodd"/>
    <path id="Path_22" data-name="Path 22" d="M39.375,138.517l6.545-.142L44.782,147.2Z" transform="translate(-28.995 -102.954)" fill="#d87c30" fill-rule="evenodd"/>
    <path id="Path_23" data-name="Path 23" d="M3.693,151.459l12.094-3.842-5.407-8.679-9.817.711Z" transform="translate(0 -103.374)" fill="#eb8f35" fill-rule="evenodd"/>
    <path id="Path_24" data-name="Path 24" d="M56.938,58.5,50.82,63.622l-4.7,5.691,11.667.427Z" transform="translate(-34.037 -43.283)" fill="#e8821e" fill-rule="evenodd"/>
    <path id="Path_25" data-name="Path 25" d="M60.75,157.7l7.541-5.264-.569,4.553v2.561l-5.122-1Z" transform="translate(-44.963 -113.46)" fill="#dfcec3" fill-rule="evenodd"/>
    <path id="Path_26" data-name="Path 26" d="M0,1.85,7.4,7.114,6.829,2.561V0L1.707,1Z" transform="translate(38.552 46.093) rotate(180)" fill="#dfcec3" fill-rule="evenodd"/>
    <path id="Path_27" data-name="Path 27" d="M1.565,3.273,0,0,5.549,1.423Z" transform="translate(22.19 32.149) rotate(180)" fill="#393939" fill-rule="evenodd"/>
    <path id="Path_28" data-name="Path 28" d="M12.375.563l19.35,14.655L28.453,7.25Z" transform="translate(-8.824 0)" fill="#e88f35" fill-rule="evenodd"/>
    <path id="Path_29" data-name="Path 29" d="M4.811.563,2.25,8.388l1.423,8.537-1,.569L4.1,18.774l-1.138,1,1.565,1.423-1,.854,2.276,2.846L16.478,21.62q7.825-6.26,7.683-6.4T4.811.563Z" transform="translate(-1.26)" fill="#8e5a30" fill-rule="evenodd"/>
    <g id="Group_21" data-name="Group 21" transform="translate(53.776 48.084) rotate(180)">
      <path id="Path_30" data-name="Path 30" d="M3.984,11.525,0,0,9.96.569h6.4v4.98l-.285,10.244-1.423-1.138Z" transform="translate(0 11.809)" fill="#f89d35" fill-rule="evenodd"/>
      <path id="Path_31" data-name="Path 31" d="M0,6.26l11.667-.285L10.387,0,4.838,1.423Z" transform="translate(11.525 15.793)" fill="#d87c30" fill-rule="evenodd"/>
      <path id="Path_32" data-name="Path 32" d="M0,9.106,4.838,4.553V0Z" transform="translate(11.525 12.805)" fill="#ea8d3a" fill-rule="evenodd"/>
      <path id="Path_33" data-name="Path 33" d="M0,8.252,5.691,6.829,7.541.711,6.26,0,0,3.7Z" transform="translate(16.362 8.964)" fill="#f89d35" fill-rule="evenodd"/>
      <path id="Path_34" data-name="Path 34" d="M1.138,8.821,0,0,7.4,5.122Z" transform="translate(15.224 3.842)" fill="#eb8f35" fill-rule="evenodd"/>
      <path id="Path_35" data-name="Path 35" d="M1.423,12.094,2.134,0,0,6.189Z" transform="translate(21.769 9.675)" fill="#ea8e3a" fill-rule="evenodd"/>
      <path id="Path_36" data-name="Path 36" d="M0,8.679l6.545.142L5.407,0Z" transform="translate(9.817 3.842)" fill="#d87c30" fill-rule="evenodd"/>
      <path id="Path_37" data-name="Path 37" d="M3.13,0,15.224,3.842,9.817,12.521,0,11.809Z" transform="translate(0)" fill="#eb8f35" fill-rule="evenodd"/>
      <path id="Path_38" data-name="Path 38" d="M10.813,11.24,4.7,6.118,0,.427,11.667,0Z" transform="translate(11.525 21.627)" fill="#e8821e" fill-rule="evenodd"/>
      <path id="Path_39" data-name="Path 39" d="M1.565,0,0,3.273,5.549,1.85Z" transform="translate(21.627 19.208) rotate(180)" fill="#393939" fill-rule="evenodd"/>
      <path id="Path_40" data-name="Path 40" d="M0,14.655,19.35,0,16.078,7.968Z" transform="translate(2.988 32.867)" fill="#e88f35" fill-rule="evenodd"/>
      <path id="Path_41" data-name="Path 41" d="M2.561,24.33,0,16.5,1.423,7.968l-1-.569L1.85,6.118l-1.138-1L2.276,3.7l-1-.854L3.557,0,14.228,3.272q7.825,6.26,7.683,6.4T2.561,24.33Z" transform="translate(0.427 23.192)" fill="#8e5a30" fill-rule="evenodd"/>
    </g>
  </g>
</svg>